<?xml version="1.0" encoding="UTF-8"?>
<svg width="300px" height="300px" version="1.1" viewBox="0 0 1200 1200" xmlns="http://www.w3.org/2000/svg">
 <g fill="#CDA671">
  <path d="m320.64 264.6h-96.48v101.4h96.48zm-24 77.398h-48.48v-53.398h48.48z"/>
  <path d="m439.68 264.6h-96.48v101.4h96.48zm-24 77.398h-48.48v-53.398h48.48z"/>
  <path d="m320.64 123.48h-96.48v101.4h96.48zm-24 77.398h-48.48v-53.398h48.48z"/>
  <path d="m439.68 123.48h-96.48v101.4h96.48zm-24 77.398h-48.48v-53.398h48.48z"/>
  <path d="m537.72 616.8c6.6016 0 12-5.3984 12-12 0-6.6016-5.3984-12-12-12h-28.918v-544.2h-352.44v544.2h-28.922c-6.6016 0-12 5.3984-12 12 0 6.6016 5.3984 12 12 12zm-122.04-24h-71.762l0.003906-164.76h71.762zm-95.758 0h-71.762v-164.76h71.762zm-139.56 0v-520.2h304.44v520.2h-45.121v-188.76h-215.52l0.003906 188.76z"/>
  <path d="m759 900.6h96.48v-101.4h-96.48zm24-77.402h48.48v53.398h-48.48z"/>
  <path d="m878.04 900.6h96.48v-101.4h-96.48zm24-77.402h48.48v53.398h-48.48z"/>
  <path d="m759 759.48h96.48v-101.4h-96.48zm24-77.402h48.48v53.398h-48.48z"/>
  <path d="m878.04 759.48h96.48v-101.4h-96.48zm24-77.402h48.48v53.398h-48.48z"/>
  <path d="m1072.7 1127.4h-28.922l0.003907-544.2h-352.56v544.08h-28.922c-6.6016 0-12 5.3984-12 12 0 6.6016 5.3984 12 12 12h410.4c6.6016 0 12-5.3984 12-12 0.003907-6.5977-5.3945-11.879-11.996-11.879zm-122.16 0h-71.762l0.003907-164.76h71.762zm-95.758 0h-71.762v-164.76h71.762zm119.76 0v-188.76h-215.52v188.76l-43.797-0.003906v-520.2h304.56v520.08l-45.238 0.003906z"/>
  <path d="m654.72 270.48-15-10.922c141.12 14.762 260.04 115.32 296.04 254.88 1.4414 5.3984 6.2383 9 11.641 9 0.96094 0 2.0391-0.12109 3-0.35938 6.4805-1.6797 10.32-8.1602 8.6406-14.641-38.879-150.96-168.36-259.32-321.36-273.36l22.922-8.7617c6.2383-2.3984 9.2383-9.2383 6.9609-15.48-2.3984-6.2383-9.2383-9.2383-15.48-6.9609l-84.719 32.398 73.199 53.52c2.1602 1.5586 4.5586 2.2812 7.0781 2.2812 3.7188 0 7.3203-1.6797 9.7188-4.9219 3.8398-5.2734 2.6406-12.832-2.6406-16.672z"/>
  <path d="m550.68 912.96c-3.8398 5.3984-2.6406 12.84 2.7617 16.801l15.961 11.52c-143.4-12.719-264.84-114.24-301.2-255.48-1.6797-6.3594-8.1602-10.32-14.641-8.6406-6.4805 1.6797-10.32 8.1602-8.6406 14.641 39.121 152.04 170.28 261 324.72 273.72l-21.961 8.5195c-6.1211 2.3984-9.2383 9.3594-6.8398 15.602 1.8008 4.8008 6.3594 7.6797 11.16 7.6797 1.4414 0 2.8789-0.23828 4.3203-0.83984l84.48-33-73.68-53.039c-5.043-4.082-12.602-2.8828-16.441 2.5195z"/>
 </g>
</svg>
