<?xml version="1.0" encoding="UTF-8"?>
<svg width="300px" height="300px" version="1.1" viewBox="200 200 800 800" xmlns="http://www.w3.org/2000/svg">
 <g fill="#CDA671" fill-rule="evenodd">
  <path d="m746.72 267.49c56.574 0 102.66 45.969 102.66 102.39 0 56.145-46.09 102.09-102.66 102.09-56.574 0-102.36-45.977-102.36-102.09 0-56.391 45.785-102.39 102.36-102.39zm0 17.188c-47.246 0-85.125 38.051-85.125 85.203 0 46.824 37.879 84.898 85.125 84.898s85.43-38.113 85.43-84.898c0-47.121-38.184-85.203-85.43-85.203z"/>
  <path d="m806.52 497.67c22.465 0 42.27 18.309 40.664 41.094v0.26953l-28.008 353.46c-1.8555 21.469-18.523 40.02-40.664 40.02h-91.293c-22.367 0-40.664-18.25-40.664-40.559v-225.61l-110.14 124.09-5.1172 5.6406-6.1953-4.2969-51.168-34.648v135.1c0 14.738-12.152 26.859-26.93 26.859h-51.977c-14.719 0-25.996-12.305-26.93-26.32l-16.16-201.71c-1.3594-15.57 12.184-27.664 26.93-27.664h71.363l2.4258 2.418 59.246 54.523 168.31-219.17 2.6914-3.4922zm0 17.191h-114.99l-166.97 217.29 22.352 20.414 137.88-155.51 12.926 11.551-33.93 38.141v245.22c0 13.02 10.375 23.367 23.43 23.367h91.293c12.668 0 22.23-10.316 23.43-24.172l28.008-353.46c0.83594-11.934-10.473-22.828-23.43-22.828zm-363.02 165.72h-64.633c-5.375 0-10.371 4.3789-9.9648 8.8633h0.26562l16.16 201.98c0.55078 6.668 2.5195 10.266 9.6953 10.477l51.977 0.59766c7.543-0.22656 9.6953-4.5039 9.6953-18.594v-138.32l-16.695-11.281 9.6953-14.234 78.906 53.18 6.7344-7.7891z"/>
  <path d="m412.97 497.41c34.297 0 62.055 28.047 62.055 62.191 0 34.148-27.754 62.191-62.055 62.191-34.555 0-62.359-28.047-62.359-62.191 0-34.148 27.805-62.191 62.359-62.191zm0 17.188c-25.293 0-45.125 20.074-45.125 45.004 0 24.934 19.832 45.004 45.125 45.004 24.941 0 44.82-20.074 44.82-45.004 0-24.934-19.879-45.004-44.82-45.004z"/>
 </g>
</svg>
