<?xml version="1.0" encoding="UTF-8"?>
<svg width="300px" height="300px" version="1.1" viewBox="220 210 760 760" xmlns="http://www.w3.org/2000/svg">
 <g fill="#CDA671">
  <path d="m461.52 844.8h4.3203c15.914 0 31.176-6.3203 42.426-17.574 11.254-11.254 17.574-26.512 17.574-42.426v-29.52c0-15.914-6.3203-31.176-17.574-42.426-11.25-11.254-26.512-17.574-42.426-17.574h-4.3203c-15.914 0-31.172 6.3203-42.426 17.574-11.254 11.25-17.574 26.512-17.574 42.426v29.52c0 15.914 6.3203 31.172 17.574 42.426 11.254 11.254 26.512 17.574 42.426 17.574zm-36-89.52c0-9.5508 3.793-18.707 10.543-25.457 6.7539-6.75 15.91-10.543 25.457-10.543h4.3203c9.5469 0 18.703 3.793 25.457 10.543 6.75 6.75 10.543 15.906 10.543 25.457v29.52c0 9.5469-3.793 18.703-10.543 25.453-6.7539 6.7539-15.91 10.547-25.457 10.547h-4.3203c-9.5469 0-18.703-3.793-25.457-10.547-6.75-6.75-10.543-15.906-10.543-25.453z"/>
  <path d="m509.64 858.48h-91.922c-16.477 0.03125-32.266 6.5898-43.918 18.242-11.648 11.648-18.211 27.441-18.242 43.918v12h24v-12c0-10.121 4.0234-19.828 11.18-26.984s16.859-11.176 26.98-11.176h91.922c10.121 0 19.828 4.0195 26.984 11.176s11.176 16.863 11.176 26.984v12h24v-12c0-16.488-6.5508-32.297-18.207-43.953-11.656-11.66-27.469-18.207-43.953-18.207z"/>
  <path d="m734.16 844.8h4.3203c15.914 0 31.172-6.3203 42.426-17.574 11.254-11.254 17.574-26.512 17.574-42.426v-29.52c0-15.914-6.3203-31.176-17.574-42.426-11.254-11.254-26.512-17.574-42.426-17.574h-4.3203c-15.914 0-31.176 6.3203-42.426 17.574-11.254 11.25-17.574 26.512-17.574 42.426v29.52c0 15.914 6.3203 31.172 17.574 42.426 11.25 11.254 26.512 17.574 42.426 17.574zm-36-89.52c0-9.5508 3.793-18.707 10.543-25.457 6.7539-6.75 15.91-10.543 25.457-10.543h4.3203c9.5469 0 18.703 3.793 25.457 10.543 6.75 6.75 10.543 15.906 10.543 25.457v29.52c0 9.5469-3.793 18.703-10.543 25.453-6.7539 6.7539-15.91 10.547-25.457 10.547h-4.3203c-9.5469 0-18.703-3.793-25.457-10.547-6.75-6.75-10.543-15.906-10.543-25.453z"/>
  <path d="m782.28 858.48h-91.922c-16.484 0-32.297 6.5469-43.953 18.207-11.656 11.656-18.207 27.465-18.207 43.953v12h24v-12c0-10.121 4.0195-19.828 11.176-26.984s16.863-11.176 26.984-11.176h91.922c10.121 0 19.824 4.0195 26.98 11.176s11.18 16.863 11.18 26.984v12h24v-12c-0.03125-16.477-6.5938-32.27-18.242-43.918-11.652-11.652-27.441-18.211-43.918-18.242z"/>
  <path d="m470.16 251.52v76.801h-175.08v258h55.082v92.52l75.238-68.16-16.078-17.758-35.16 31.797v-62.398h-55.082v-210h151.08v157.32h179.64v52.68h-210.72v24h234.72v-76.68h87.121v-24h-266.76v-210.12h386.76v210.12h-55.203v62.398l-35.039-31.801-16.078 17.762 75.117 68.16v-92.52h55.203v-258.12z"/>
  <path d="m586.08 387.24c-0.03125 5.6484 2.1875 11.074 6.168 15.082 3.9766 4.0117 9.3867 6.2695 15.035 6.2812 5.6445 0.007813 11.062-2.2305 15.059-6.2227 3.9922-3.9922 6.2305-9.4141 6.2188-15.059-0.007813-5.6484-2.2695-11.059-6.2773-15.035-4.0078-3.9805-9.4336-6.1953-15.082-6.1641-5.6016 0-10.973 2.2227-14.934 6.1836-3.9609 3.9609-6.1875 9.332-6.1875 14.934z"/>
  <path d="m662.76 387.24c-0.035157 5.6406 2.1797 11.062 6.1484 15.07 3.9688 4.0078 9.3711 6.2695 15.008 6.293 5.6406 0.019532 11.059-2.2031 15.059-6.1797s6.2539-9.3828 6.2617-15.023c0.011719-5.6367-2.2227-11.051-6.207-15.043-3.9844-3.9922-9.3906-6.2344-15.031-6.2344-5.6211-0.03125-11.023 2.1797-15.012 6.1406-3.9883 3.9648-6.2266 9.3555-6.2266 14.977z"/>
  <path d="m760.56 366.12c-5.6406 0-11.047 2.2422-15.031 6.2344-3.9844 3.9922-6.2188 9.4062-6.207 15.043 0.011719 5.6406 2.2656 11.047 6.2656 15.023 3.9961 3.9766 9.4141 6.1992 15.055 6.1797 5.6406-0.023437 11.039-2.2852 15.008-6.293 3.9727-4.0078 6.1836-9.4297 6.1523-15.07 0-5.6211-2.2422-11.012-6.2305-14.977-3.9844-3.9609-9.3867-6.1719-15.012-6.1406z"/>
 </g>
</svg>
