<svg width="300px" height="300px" viewBox="27 27 120 120" fill="none" xmlns="http://www.w3.org/2000/svg">
<path d="M135.257 137.093H39.7426C37.7946 137.093 35.9257 136.319 34.5476 134.942C33.1704 133.564 32.3959 131.695 32.3959 129.746V45.2523C32.3959 43.3042 33.1704 41.4353 34.5476 40.0572C35.9257 38.6791 37.7946 37.9055 39.7426 37.9055H135.257C137.206 37.9055 139.075 38.6791 140.452 40.0572C141.83 41.4353 142.605 43.3042 142.605 45.2523V129.746C142.605 131.695 141.83 133.564 140.452 134.942C139.075 136.319 137.206 137.093 135.257 137.093ZM39.7426 41.5787C38.7691 41.5787 37.8346 41.966 37.1456 42.655C36.4565 43.344 36.0693 44.2776 36.0693 45.2521V129.745C36.0693 130.72 36.4565 131.654 37.1456 132.343C37.8346 133.032 38.7691 133.42 39.7426 133.42H135.257C136.232 133.42 137.166 133.032 137.855 132.343C138.544 131.654 138.931 130.72 138.931 129.745V45.2521C138.931 44.2776 138.544 43.344 137.855 42.655C137.166 41.966 136.232 41.5787 135.257 41.5787H39.7426Z" fill="#CDA671"/>
<path d="M47.0917 56.2747C45.63 56.2747 44.2282 55.6938 43.1956 54.6603C42.1621 53.6276 41.5812 52.2259 41.5812 50.7642C41.5812 49.3025 42.1621 47.9016 43.1956 46.8681C44.2283 45.8345 45.63 45.2537 47.0917 45.2537C48.5534 45.2537 49.9543 45.8345 50.9878 46.8681C52.0213 47.9017 52.6022 49.3025 52.6022 50.7642C52.6022 52.2259 52.0213 53.6277 50.9878 54.6603C49.9542 55.6938 48.5534 56.2747 47.0917 56.2747ZM47.0917 48.928C46.349 48.928 45.6791 49.3752 45.3945 50.0615C45.11 50.7478 45.2673 51.5378 45.7927 52.0632C46.3181 52.5887 47.108 52.7459 47.7944 52.4614C48.4807 52.1768 48.9289 51.5069 48.9289 50.7642C48.9289 50.277 48.7352 49.8097 48.3907 49.4652C48.0462 49.1207 47.5789 48.928 47.0917 48.928Z" fill="#CDA671"/>
<path d="M61.7852 56.2747C60.3235 56.2747 58.9217 55.6938 57.8882 54.6603C56.8555 53.6276 56.2747 52.2259 56.2747 50.7642C56.2747 49.3025 56.8555 47.9016 57.8882 46.8681C58.9218 45.8345 60.3235 45.2537 61.7852 45.2537C63.246 45.2537 64.6478 45.8345 65.6813 46.8681C66.7149 47.9017 67.2957 49.3025 67.2957 50.7642C67.2957 52.2259 66.7149 53.6277 65.6813 54.6603C64.6477 55.6938 63.2459 56.2747 61.7852 56.2747ZM61.7852 48.928C61.0425 48.928 60.3726 49.3752 60.088 50.0615C59.8035 50.7478 59.9608 51.5378 60.4862 52.0632C61.0116 52.5887 61.8015 52.7459 62.4879 52.4614C63.1742 52.1768 63.6214 51.5069 63.6214 50.7642C63.6214 50.277 63.4287 49.8097 63.0842 49.4652C62.7397 49.1207 62.2724 48.928 61.7852 48.928Z" fill="#CDA671"/>
<path d="M140.768 63.6214H34.2344C33.2199 63.6214 32.3972 62.7996 32.3972 61.7851C32.3972 60.7707 33.2199 59.948 34.2344 59.948H140.768C141.782 59.948 142.605 60.7707 142.605 61.7851C142.605 62.7996 141.782 63.6214 140.768 63.6214Z" fill="#CDA671"/>
<path d="M126.072 63.6213C125.058 63.6213 124.236 62.7995 124.236 61.7851V39.7427C124.236 38.7282 125.058 37.9065 126.072 37.9065C127.087 37.9065 127.909 38.7282 127.909 39.7427V61.7851C127.909 62.2723 127.716 62.7395 127.371 63.0841C127.027 63.4286 126.559 63.6213 126.072 63.6213Z" fill="#CDA671"/>
<path d="M87.4999 124.236C80.0585 124.255 72.9735 121.05 68.0747 115.447C63.1759 109.845 60.9451 102.395 61.9569 95.0221C62.9696 87.6498 67.1257 81.0766 73.3536 77.0023C79.5805 72.927 87.2672 71.7499 94.4285 73.7743C94.913 73.9097 95.3203 74.2388 95.5566 74.6824C95.7921 75.1269 95.8357 75.6487 95.6757 76.126L94.9467 78.3149L96.5884 83.2447V83.2456C96.8084 83.9046 96.6375 84.6319 96.1457 85.1246L95.2457 86.0245L95.9802 87.4935H98.521C99.0082 87.4935 99.4755 87.6871 99.82 88.0317L101.657 89.8688H101.656C102.003 90.2143 102.196 90.6842 102.194 91.1733V94.0868L103.493 95.3858V95.3849C103.838 95.7295 104.032 96.1967 104.032 96.683V97.3848L105.501 98.1193L106.4 97.2193C106.747 96.8748 107.216 96.6812 107.705 96.683H111.378C111.866 96.683 112.333 96.8766 112.677 97.2212C113.022 97.5657 113.215 98.0329 113.215 98.5202C113.208 105.338 110.496 111.875 105.676 116.695C100.854 121.517 94.3176 124.229 87.5 124.236L87.4999 124.236ZM87.4999 76.4787C81.7603 76.4787 76.2478 78.7176 72.1337 82.72C68.0184 86.7215 65.6277 92.1702 65.4686 97.9082C65.3095 103.645 67.3939 109.219 71.2801 113.443C75.1663 117.667 80.5458 120.209 86.2763 120.528C92.0078 120.847 97.6364 118.918 101.967 115.151C106.298 111.384 108.989 106.077 109.467 100.357H108.466L107.167 101.656V101.655C106.608 102.214 105.754 102.354 105.047 102.001L101.374 100.164C100.751 99.8528 100.357 99.2165 100.358 98.5202V97.4439L99.0594 96.1449C98.7148 95.8012 98.5212 95.334 98.5212 94.8468V91.9332L97.7613 91.1733H94.8477C94.1478 91.1769 93.5069 90.7833 93.1942 90.157L91.357 86.4836H91.3579C91.0043 85.7763 91.1434 84.9228 91.7034 84.3637L92.736 83.3274L91.267 78.8949L91.2661 78.8958C91.137 78.5195 91.137 78.1113 91.2661 77.735L91.5525 76.8696C90.2171 76.6114 88.86 76.4805 87.5 76.4787L87.4999 76.4787Z" fill="#CDA671"/>
<path d="M81.9893 93.0106C80.5276 93.0106 79.1258 92.4307 78.0923 91.3971C77.0588 90.3635 76.4788 88.9618 76.4788 87.5001C76.4788 86.0393 77.0587 84.6375 78.0923 83.604C79.1259 82.5704 80.5276 81.9905 81.9893 81.9905C83.4501 81.9905 84.8519 82.5704 85.8854 83.604C86.919 84.6376 87.4989 86.0394 87.4989 87.5001C87.4989 88.9618 86.919 90.3636 85.8854 91.3971C84.8518 92.4306 83.45 93.0106 81.9893 93.0106ZM81.9893 85.6639C81.2457 85.6639 80.5758 86.1111 80.2921 86.7975C80.0076 87.4838 80.1649 88.2737 80.6903 88.7992C81.2157 89.3246 82.0056 89.4819 82.692 89.1973C83.3783 88.9128 83.8255 88.2437 83.8255 87.5001C83.8255 87.0129 83.6319 86.5465 83.2874 86.202C82.9429 85.8575 82.4756 85.6639 81.9893 85.6639Z" fill="#CDA671"/>
<path d="M76.4787 107.704C75.017 107.704 73.6152 107.123 72.5817 106.091C71.549 105.057 70.9681 103.655 70.9681 102.194C70.9681 100.733 71.549 99.331 72.5817 98.2976C73.6153 97.264 75.017 96.6831 76.4787 96.6831C77.9395 96.6831 79.3413 97.264 80.3748 98.2976C81.4083 99.3311 81.9892 100.733 81.9892 102.194C81.9892 103.655 81.4083 105.057 80.3748 106.091C79.3412 107.123 77.9394 107.704 76.4787 107.704ZM76.4787 100.357C75.7351 100.357 75.066 100.805 74.7815 101.491C74.497 102.177 74.6542 102.967 75.1797 103.493C75.7051 104.018 76.495 104.175 77.1814 103.891C77.8677 103.606 78.3149 102.937 78.3149 102.194C78.3149 101.706 78.1213 101.239 77.7768 100.895C77.4332 100.551 76.9659 100.357 76.4787 100.357Z" fill="#CDA671"/>
<path d="M91.1745 113.215C89.7128 113.215 88.311 112.634 87.2775 111.6C86.2439 110.568 85.6639 109.166 85.6639 107.704C85.6639 106.242 86.2439 104.842 87.2775 103.808C88.311 102.774 89.7128 102.194 91.1745 102.194C92.6353 102.194 94.0371 102.774 95.0706 103.808C96.1041 104.842 96.6841 106.242 96.6841 107.704C96.6841 109.166 96.1041 110.568 95.0706 111.6C94.037 112.634 92.6352 113.215 91.1745 113.215ZM91.1745 105.868V105.867C90.4309 105.867 89.7618 106.315 89.4773 107.001C89.1928 107.688 89.35 108.478 89.8755 109.003C90.4009 109.529 91.1908 109.686 91.8772 109.401C92.5635 109.117 93.0107 108.447 93.0107 107.704C93.0107 107.217 92.8171 106.75 92.4726 106.405C92.128 106.061 91.6608 105.867 91.1745 105.867V105.868Z" fill="#CDA671"/>
</svg>
