<svg width="221" height="171" viewBox="0 0 221 171" fill="none" xmlns="http://www.w3.org/2000/svg">
<path d="M160.632 85.4517L138.602 76.3141V52.1298C138.602 44.0676 118.235 39.6611 99.1162 39.6611C79.9973 39.6611 59.7678 44.0676 59.7678 52.1298V110.606C59.7678 118.668 80.1345 123.074 99.1162 123.074C103.006 123.063 106.892 122.884 110.754 122.537C114.488 125.43 118.912 127.73 123.779 129.309L128.628 131.029L134.169 129.202C151.21 123.72 160.631 113.616 160.631 100.932L160.632 85.4517ZM99.1165 43.9605C119.76 43.9605 133.061 48.7978 133.061 52.1298C133.061 55.4627 119.762 60.192 99.1165 60.192C78.4734 60.192 65.312 55.4627 65.312 52.1298C65.3131 48.7978 78.4745 43.9605 99.1165 43.9605ZM65.312 58.6874C72.6557 62.5575 86.2331 64.4921 99.1165 64.4921C112.001 64.4921 125.717 62.5574 133.061 58.6874V71.586H133.06C132.962 72.2961 132.515 72.9505 131.814 73.4133L128.904 72.2305L113.249 78.8952C108.574 79.4653 103.848 79.7535 99.116 79.7553C78.4728 79.7553 65.3114 74.918 65.3114 71.586L65.312 58.6874ZM65.312 78.1435C72.6557 82.0137 86.2331 84.0556 99.1165 84.0556H101.334L97.8697 85.5601L97.8685 99.2116C77.9179 98.997 65.3103 94.2669 65.3103 91.0423V78.1437L65.312 78.1435ZM99.1165 118.774C78.4734 118.774 65.312 113.937 65.312 110.605L65.3131 97.5983C72.5173 101.36 85.6798 103.403 98.2868 103.51C99.3793 108.953 102.134 114.113 106.323 118.56L99.1165 118.774ZM155.091 100.931C155.091 108.671 151.073 119.097 132.092 125.224L128.767 126.299L125.996 125.439V125.44C119.287 123.193 113.573 119.471 109.56 114.734C105.546 109.997 103.41 104.451 103.413 98.7818V88.0324L128.905 77.1757L155.091 88.0324L155.091 100.931Z" fill="#CDA671"/>
<path d="M118.235 98.2417L114.355 101.251L126.133 110.173L145.252 95.6617L141.373 92.5444L126.133 104.154L118.235 98.2417Z" fill="#CDA671"/>
</svg>
