<svg width="220" height="200" viewBox="0 0 220 200" fill="none" xmlns="http://www.w3.org/2000/svg">
<path d="M169.63 101.104H164.349C161.354 101.107 158.451 102.045 156.126 103.762L151.831 106.941L124.325 91.1452C122.125 89.8725 119.536 89.2731 116.935 89.4321C114.334 89.5921 111.856 90.5032 109.864 92.0324L105.251 95.5595C103.793 96.6348 101.664 96.4873 100.401 95.224C99.1381 93.9597 99.1815 92.0189 100.499 90.8024L109.249 82.9931C110.342 82.0114 111.818 81.4628 113.354 81.467H122.733C123.881 81.467 124.811 80.6213 124.811 79.5772C124.811 78.5342 123.881 77.6885 122.733 77.6885H113.355C110.73 77.6823 108.208 78.6204 106.34 80.2972L97.5851 88.1025C90.7431 94.4565 100.317 104.013 107.922 98.4469L112.535 94.9198H112.536C113.854 93.9089 115.493 93.3064 117.214 93.2015C118.933 93.0955 120.646 93.4913 122.102 94.3318L151.064 110.972C151.906 111.45 152.497 112.219 152.702 113.102C152.99 114.412 152.397 115.754 151.192 116.518C149.986 117.283 148.397 117.327 147.143 116.63C143.957 114.784 120.225 101.165 116.428 98.9849C115.458 98.428 114.173 98.6919 113.561 99.5739C112.948 100.457 113.24 101.624 114.21 102.181L139.588 116.765C141.208 117.806 141.632 119.825 140.548 121.335C139.463 122.844 137.259 123.303 135.559 122.374L111.221 108.377C111.12 108.32 111.013 108.273 110.904 108.232C109.903 107.869 108.761 108.261 108.276 109.136C107.791 110.011 108.122 111.079 109.04 111.594L127.519 122.219C128.36 122.699 128.948 123.47 129.152 124.353C129.439 125.664 128.844 127.006 127.638 127.771C126.431 128.535 124.84 128.578 123.586 127.879L121.661 126.778C120.897 126.299 110.682 120.48 110.24 120.211V120.212C109.271 119.68 108.012 119.951 107.409 120.822C106.804 121.691 107.078 122.84 108.023 123.406L114.246 126.981C115.835 127.91 116.388 129.783 115.524 131.31C114.66 132.837 112.662 133.518 110.907 132.883C111.051 130.606 109.947 128.411 107.959 127.018C106.874 126.231 105.573 125.726 104.196 125.56C104.217 125.424 104.223 125.286 104.212 125.148C104.694 123.763 104.696 122.275 104.216 120.887C103.736 119.5 102.799 118.28 101.531 117.395C99.5661 116.017 96.9948 115.579 94.6155 116.218C94.2715 114.502 93.2396 112.962 91.7197 111.897C90.1998 110.833 88.2995 110.317 86.3864 110.451C84.4723 110.585 82.6816 111.359 81.3592 112.624C79.3525 109.6 74.947 107.689 71.1906 109.097L63.9865 103.761V103.762C61.6621 102.046 58.7595 101.108 55.7652 101.104H50.4788C49.3303 101.104 48.4 101.95 48.4 102.993C48.4 104.037 49.3303 104.883 50.4788 104.883H55.762H55.7608C57.7996 104.886 59.7755 105.524 61.3583 106.692L67.7087 111.394C63.0703 116.646 68.8298 124.517 75.9333 122.62C76.3401 124.571 77.6211 126.281 79.4714 127.339C81.3204 128.396 83.5707 128.706 85.6823 128.193C86.0789 130.143 87.3588 131.852 89.209 132.903C91.0592 133.953 93.3106 134.249 95.412 133.719C96.4714 139.891 105.857 141.773 109.568 136.477C111.871 137.235 114.431 136.976 116.495 135.777C118.558 134.576 119.89 132.57 120.097 130.352C125.214 134.123 132.716 131.721 133.362 125.577C135.699 126.881 138.614 126.987 141.057 125.855C143.502 124.725 145.123 122.52 145.339 120.035C152.753 123.801 160.565 115.346 155.166 109.344C157.716 107.454 160.782 104.676 164.345 104.886L169.629 104.887C170.779 104.887 171.71 104.04 171.71 102.995C171.71 101.951 170.779 101.105 169.629 101.105L169.63 101.104ZM74.2461 119.091C73.0141 119.196 71.8051 118.732 71.0268 117.859C70.2486 116.984 70.0029 115.813 70.3731 114.739C70.7434 113.666 71.6805 112.831 72.869 112.518C74.0575 112.204 75.3396 112.451 76.2848 113.176L77.1785 113.844C78.7555 115.103 77.8893 116.52 76.8414 117.768L76.7716 117.853H76.7728C76.1488 118.559 75.2369 119.006 74.2461 119.091L74.2461 119.091ZM83.9916 124.663V124.662C82.6705 124.76 81.3929 124.213 80.6351 123.226C79.8775 122.238 79.7529 120.96 80.3094 119.868C80.4191 119.704 84.0108 115.787 83.8634 115.727V115.726C84.3936 114.952 85.2507 114.41 86.2347 114.23C87.2175 114.048 88.2391 114.242 89.0596 114.767C89.8801 115.29 90.4264 116.099 90.5715 117.001C90.7167 117.903 90.447 118.821 89.8253 119.536C89.2585 120.194 86.9957 122.64 86.5832 123.342L86.5135 123.426V123.425C85.893 124.134 84.9822 124.58 83.9914 124.662L83.9916 124.663ZM91.5076 129.783V129.782C89.8494 128.886 89.2254 126.984 90.0699 125.409C90.1831 125.067 93.6719 121.297 93.9907 120.918C95.2547 119.523 97.5195 119.315 99.0648 120.453C100.609 121.59 100.856 123.646 99.6179 125.06C99.0636 125.701 96.754 128.209 96.3495 128.885C95.1861 130.209 93.1475 130.586 91.5074 129.782L91.5076 129.783ZM103.461 135.807V135.806C102.243 135.935 101.035 135.497 100.249 134.641C99.4637 133.785 99.2043 132.626 99.5608 131.559C99.9173 130.492 100.842 129.661 102.018 129.348C103.195 129.034 104.467 129.28 105.4 130.002C106.538 130.841 107.004 132.223 106.577 133.497C106.151 134.772 104.919 135.685 103.461 135.806L103.461 135.807Z" fill="#CDA671"/>
<path d="M163.773 43.4285H156.416H156.417C155.269 43.4285 154.339 44.2742 154.339 45.3172C154.339 46.3613 155.269 47.207 156.417 47.207H163.774H163.773C166.259 47.207 168.555 46.0019 169.797 44.0456C171.039 42.0893 171.039 39.6791 169.797 37.723C168.555 35.7667 166.259 34.5615 163.773 34.5615H156.416H156.417C155.269 34.5615 154.339 35.4072 154.339 36.4502C154.339 37.4933 155.269 38.34 156.417 38.34H163.774H163.773C165.319 38.34 166.572 39.4786 166.572 40.8843C166.572 42.2888 165.319 43.4285 163.773 43.4285V43.4285Z" fill="#CDA671"/>
<path d="M80.4394 45.3196C80.4394 46.3637 81.3696 47.2094 82.517 47.2094C82.6553 47.1969 101.914 47.2343 102.041 47.1969L102.088 47.2541L98.46 79.1051C98.3423 80.143 99.172 81.0717 100.315 81.1788C101.456 81.2858 102.478 80.5305 102.596 79.4927L105.911 50.3889C109.598 52.286 114.109 52.286 117.796 50.3889L120.42 73.465C120.538 74.5028 121.559 75.2571 122.702 75.1501C123.844 75.042 124.673 74.1133 124.556 73.0754L121.619 47.2547L121.655 47.2089L146.079 47.21V50.9158C138.966 52.1189 135.833 60.7033 140.853 65.5113L130.472 78.4592C130.348 78.6202 130.252 78.7979 130.186 78.9849C129.483 87.2929 137.277 94.4043 146.356 94.3689H149.968C159.043 94.4053 166.838 87.2931 166.133 78.9798C166.065 78.7928 165.969 78.6162 165.847 78.4541L155.466 65.5063C160.489 60.7025 157.351 52.1169 150.236 50.9161V36.4493C150.236 35.9424 150.012 35.4561 149.613 35.1009C149.214 34.7456 148.676 34.5502 148.117 34.5606H121.654C119.382 31.6944 115.73 29.9979 111.844 30C107.957 30.0031 104.309 31.7048 102.041 34.5742C101.893 34.5337 82.6706 34.5742 82.5153 34.5607C81.3668 34.5607 80.4365 35.4064 80.4365 36.4494C80.4365 37.4935 81.3668 38.3392 82.5153 38.3392H100.163C99.713 40.0108 99.713 41.7562 100.163 43.4277H82.5176C81.9656 43.4277 81.4365 43.6272 81.0469 43.9825C80.6572 44.3378 80.4389 44.8188 80.44 45.3206L80.4394 45.3196ZM152.112 67.739L160.082 77.6781H136.242L144.212 67.739C146.727 68.7489 149.594 68.7499 152.112 67.7422V67.739ZM149.967 90.5864L146.356 90.5874C143.504 90.5833 140.745 89.6649 138.563 87.9954C136.381 86.3259 134.916 84.0113 134.426 81.4566H161.897C161.406 84.0112 159.942 86.3268 157.759 87.9964C155.578 89.667 152.819 90.5854 149.966 90.5895L149.967 90.5864ZM153.792 59.6023C153.792 61.4318 152.719 63.122 150.976 64.0364C149.233 64.9517 147.087 64.9517 145.344 64.0364C143.602 63.1222 142.529 61.4319 142.529 59.6023C142.529 57.7739 143.603 56.0837 145.346 55.1694C147.088 54.2562 149.236 54.2562 150.978 55.1714C152.72 56.0867 153.793 57.777 153.792 59.6066L153.792 59.6023ZM146.079 38.3422V43.4308H123.545C123.995 41.7592 123.995 40.0138 123.545 38.3422H146.079ZM111.856 33.7244C113.269 33.7255 114.654 34.0714 115.869 34.7249C117.082 35.3794 118.082 36.3175 118.761 37.4427C118.775 37.4645 118.785 37.4894 118.8 37.5092C120.035 39.6254 120.033 42.1613 118.793 44.2754C118.785 44.2879 118.779 44.3014 118.769 44.3149C117.877 45.8005 116.434 46.9506 114.697 47.5614C112.96 48.1713 111.042 48.2024 109.282 47.6487C107.522 47.095 106.035 45.9927 105.084 44.5373C104.134 43.0807 103.782 41.3665 104.091 39.6971C104.4 38.0276 105.349 36.5117 106.771 35.4178C108.193 34.3249 109.995 33.7244 111.856 33.7244L111.856 33.7244Z" fill="#CDA671"/>
<path d="M74.2607 34.5588H58.6433C56.1589 34.5588 53.863 35.7639 52.6196 37.7202C51.3774 39.6764 51.3774 42.0867 52.6196 44.0428C53.863 45.999 56.159 47.2042 58.6433 47.2042H72.1818V50.9101C65.0669 52.1131 61.9287 60.6997 66.9559 65.5056L56.575 78.4553C56.4493 78.6194 56.3521 78.8002 56.2858 78.9914C55.5933 87.3047 63.3767 94.4012 72.4541 94.368H76.0665C85.1436 94.4033 92.9375 87.2911 92.2336 78.9778C92.1673 78.7908 92.0702 78.6131 91.9468 78.4521L81.5658 65.5042C86.5872 60.6952 83.4514 52.1109 76.3399 50.9088L76.3388 36.4473C76.3388 35.4043 75.4086 34.5586 74.2612 34.5586L74.2607 34.5588ZM58.6433 43.4298C57.0983 43.4298 55.8446 42.2901 55.8446 40.8855C55.8446 39.4799 57.0983 38.3413 58.6433 38.3413H72.1818V43.4298L58.6433 43.4298ZM78.2101 67.7388L86.1799 77.6779L62.3403 77.6769L70.31 67.7378H70.3089C72.8253 68.7476 75.6936 68.7486 78.2102 67.7409L78.2101 67.7388ZM76.0651 90.5861H72.4539C69.6015 90.581 66.8427 89.6636 64.6611 87.9941C62.4796 86.3246 61.0145 84.009 60.523 81.4553H87.9966C87.5064 84.0099 86.0413 86.3255 83.8596 87.9962C81.6769 89.6657 78.9181 90.5841 76.0657 90.5883L76.0651 90.5861ZM79.8923 59.6021V59.6011C79.8923 61.4306 78.8192 63.1207 77.0765 64.0351C75.3338 64.9504 73.1876 64.9504 71.4449 64.0351C69.7021 63.1209 68.629 61.4306 68.629 59.6011C68.629 57.7726 69.7033 56.0824 71.446 55.1681C73.1887 54.2549 75.3361 54.2549 77.0788 55.1702C78.8204 56.0854 79.8935 57.7757 79.8924 59.6053L79.8923 59.6021Z" fill="#CDA671"/>
</svg>
