<svg width="300px" height="300px" viewBox="55 30 110 110" fill="none" xmlns="http://www.w3.org/2000/svg">
<path d="M72.6322 86.5139C69.8313 86.5139 67.5515 88.0814 67.5515 90.0072C67.5515 91.9339 69.8302 93.5006 72.6322 93.5006C75.4321 93.5006 77.713 91.9331 77.713 90.0072C77.7119 88.0806 75.4331 86.5139 72.6322 86.5139ZM72.6322 91.3505C71.3798 91.3505 70.3227 90.7361 70.3227 90.0072C70.3227 89.2784 71.3798 88.664 72.6322 88.664C73.8836 88.664 74.9418 89.2784 74.9418 90.0072C74.9418 90.736 73.8847 91.3505 72.6322 91.3505ZM155.296 78.9324C152.933 78.9324 151.01 80.2038 151.01 81.7678C151.01 83.3317 152.933 84.6032 155.296 84.6032C157.659 84.6032 159.583 83.3309 159.583 81.7678C159.584 80.2047 157.66 78.9324 155.296 78.9324ZM155.296 82.4542C154.442 82.4542 153.781 82.0853 153.781 81.7688C153.781 81.4514 154.444 81.0835 155.296 81.0835C156.15 81.0835 156.811 81.4523 156.811 81.7688C156.813 82.0853 156.15 82.4542 155.296 82.4542ZM79.7296 72.9709C79.7296 70.2801 76.7915 68.0918 73.179 68.0918C69.5666 68.0918 66.6285 70.28 66.6285 72.9709V72.9824C64.9474 73.9488 63.8206 75.348 63.4642 76.903C61.6495 77.4837 60.4164 78.8314 60.4164 80.3555C60.4164 82.4266 62.6722 84.1131 65.4424 84.1131C66.3441 84.1131 67.2229 83.9296 67.9932 83.5864C69.1748 84.0306 70.4764 84.2629 71.8054 84.2629C76.4839 84.2629 80.2918 81.4346 80.2918 77.9582C80.2918 76.8712 79.9147 75.8179 79.1947 74.8745C79.5467 74.269 79.7296 73.6217 79.7296 72.9709ZM71.8066 82.1128C70.6798 82.1128 69.5839 81.8699 68.64 81.4106C68.4138 81.3006 68.1589 81.2474 67.9041 81.2474C67.5761 81.2474 67.279 81.3671 66.991 81.5143C64.5592 82.7565 63.1867 81.243 63.1867 80.3564C63.1867 79.5965 63.9455 78.9342 64.9911 78.7835C65.6242 78.6922 66.0916 78.2755 66.1213 77.7772C66.2036 76.4162 67.2001 75.1715 68.7897 74.447C69.28 74.2236 69.5509 73.7475 69.4491 73.3139C69.0183 71.4697 71.0936 70.2418 73.1768 70.2418C75.2602 70.2418 76.956 71.4662 76.956 72.9707C76.956 73.4521 76.7732 73.9176 76.4132 74.3556C76.1024 74.7333 76.1264 75.221 76.4726 75.5791C77.1572 76.2876 77.5183 77.1095 77.5183 77.9579C77.5217 80.2489 74.9572 82.1128 71.8066 82.1128ZM130.867 73.7528C130.867 73.7528 130.852 62.7152 130.854 62.7497C130.882 63.2187 130.908 62.1814 130.522 61.8134L124.912 53.9288C124.424 53.2434 123.496 52.8169 122.486 52.8169L117.05 52.8178V42.182C117.05 40.3786 116.092 37.3535 109.677 37.3535H107.772C102.677 37.3535 100.398 39.7785 100.398 42.182V52.8169H92.1715C90.6424 52.8169 89.4002 53.7798 89.4002 54.967V66.0382C89.4002 66.0878 86.7558 73.0098 87.5192 77.2549C83.0805 79.3659 80.667 82.0186 80.667 84.8726V120.912C80.667 127.991 95.4959 133.33 115.159 133.33C134.823 133.33 149.654 127.991 149.654 120.912V84.8749C149.654 79.9409 142.646 75.8172 130.868 73.754L130.867 73.7528ZM125.411 85.7346H121.165C120.012 84.4863 117.825 81.6216 117.37 77.4351C117.338 77.1398 116.996 76.9182 116.621 76.9447C116.241 76.9696 115.957 77.2293 115.989 77.5255C116.408 81.3868 118.193 84.1734 119.484 85.7347H115.701C114.957 84.7541 113.739 82.7432 113.136 79.4893C113.081 79.1958 112.729 78.9875 112.352 79.0336C111.973 79.0761 111.71 79.3483 111.764 79.6418C112.305 82.5473 113.317 84.5351 114.118 85.7329L102.89 85.7338C102.008 84.5457 99.8245 81.2687 99.3763 77.3659C99.278 76.5067 99.2197 74.439 99.1912 73.0116H124.598C124.689 73.6154 124.631 80.9087 131.919 85.7347H127.264C125.595 84.3374 122.066 80.83 122.066 76.1477C122.066 75.8507 121.755 75.6104 121.374 75.6104C120.991 75.6104 120.681 75.8516 120.681 76.1477C120.681 80.5542 123.475 83.9234 125.411 85.7346ZM125.326 63.9264V70.8607H99.1665V63.9264H125.326ZM105.94 41.8761C106.231 41.7085 111.307 41.7813 111.478 41.8407C111.491 41.9009 111.509 42.9897 111.509 42.9897C111.106 43.1263 106.337 43.1227 105.94 43.0057L105.94 41.8761ZM105.94 45.2374C106.546 45.3456 107.214 45.4094 107.938 45.4094H109.509C110.233 45.4094 110.901 45.3473 111.507 45.2374C111.507 45.2374 111.538 54.9007 111.584 55.0577C111.584 56.2893 110.301 57.2902 108.722 57.2902C107.144 57.2902 105.861 56.2884 105.861 55.0577C105.91 54.9017 105.94 45.2374 105.94 45.2374ZM108.724 59.4402C110.647 59.4402 112.331 58.6777 113.344 57.5286H121.144L124.167 61.7765L98.538 61.7774L95.0285 57.5295H104.102C105.115 58.6795 106.8 59.4402 108.724 59.4402ZM94.9428 61.4085L96.3964 63.1667V68.2675L94.8902 66.4446C94.9211 66.3134 94.9428 61.4085 94.9428 61.4085ZM94.0011 69.3545L96.3941 72.2511C96.3941 72.2511 96.5072 76.5991 96.617 77.5558C96.8764 79.8229 97.65 81.8772 98.474 83.5191C96.4707 81.9702 94.177 79.7624 93.0995 77.1513C93.0995 77.1504 93.0972 77.1495 93.0972 77.1469C92.503 75.1635 93.1463 71.9363 94.0011 69.3545ZM144.113 120.912C144.113 124.303 133.099 129.031 115.16 129.031C97.2215 129.031 86.2087 124.303 86.2087 120.912V114.432C91.8128 117.898 102.556 120.196 115.16 120.196C127.765 120.196 138.508 117.898 144.113 114.432V120.912ZM144.113 111.469C140.452 114.977 129.735 118.045 115.16 118.045C100.585 118.045 89.8691 114.977 86.2098 111.469V102.514C91.814 105.98 102.557 108.278 115.161 108.278C127.766 108.278 138.51 105.98 144.114 102.514L144.113 111.469ZM144.113 99.5522C140.452 103.06 129.735 106.127 115.16 106.127C100.585 106.127 89.8691 103.06 86.2098 99.5522V90.2755C91.6747 93.8077 102.467 96.1628 115.161 96.1628C127.857 96.1628 138.649 93.8079 144.114 90.2755L144.113 99.5522ZM144.113 87.1839C140.836 90.7862 130.033 94.0117 115.16 94.0117C100.288 94.0117 89.4838 90.7844 86.2087 87.1839V84.8723C86.2087 83.3899 88.3171 81.7053 91.8576 80.2999C94.9455 84.7278 101.077 87.8823 101.343 87.8823H135.867C136.474 87.8823 137.01 87.5755 137.19 87.1269C137.371 86.6773 137.153 86.1897 136.653 85.9219C136.607 85.8971 130.09 80.9062 129.657 77.8493C132.14 78.2917 144.114 81.2415 144.114 84.8715L144.113 87.1839L144.113 87.1839ZM155.415 74.0583C155.415 72.9429 154.52 71.9845 153.259 71.5952C153.163 68.9184 150.328 66.7631 146.854 66.7631C146.065 66.7631 145.294 66.8748 144.57 67.0911C143.604 66.1061 142.086 65.497 140.446 65.497C137.581 65.497 135.251 67.3048 135.251 69.5276C135.251 71.87 137.912 73.7471 140.908 73.5424C141.848 75.406 144.19 76.706 146.854 76.706C147.898 76.706 148.928 76.5003 149.849 76.1155C150.444 76.4905 151.199 76.706 152.001 76.706C153.883 76.7086 155.415 75.5194 155.415 74.0583ZM151.406 74.2516C151.232 73.9342 150.876 73.6992 150.443 73.6221C150.339 73.6035 150.233 73.5937 150.128 73.5937C149.798 73.5937 149.491 73.7019 149.22 73.8571C145.805 75.8023 143.514 73.5077 143.272 72.1157C143.213 71.7859 142.963 71.4942 142.59 71.3293C142.219 71.1635 141.751 71.1121 141.371 71.2672C139.355 72.0918 138.023 70.5677 138.023 69.5303C138.023 68.493 139.111 67.6489 140.448 67.6489C141.457 67.6489 142.367 68.149 142.716 68.8929C142.861 69.2058 143.187 69.4488 143.596 69.5498C144.002 69.6527 144.451 69.6004 144.803 69.4124C145.412 69.0879 146.122 68.9168 146.857 68.9168C148.861 68.9168 150.787 70.0597 150.42 72.294C150.365 72.6335 150.496 72.9722 150.794 73.2249C151.092 73.4776 151.559 73.6008 152.003 73.561C152.357 73.561 152.646 73.7844 152.646 74.0601C152.646 74.335 152.358 74.5593 152.003 74.5593C151.74 74.5584 151.508 74.4378 151.406 74.2516Z" fill="#CDA671"/>
</svg>
