<?xml version="1.0" encoding="UTF-8"?>
<svg width="300px" height="300px" version="1.1" viewBox="100 100 1000 1000" xmlns="http://www.w3.org/2000/svg">
 <g fill="#CDA671">
  <path d="m987.6 282v-8.3984c0-44.398-36-81.602-81.602-81.602h-439.2c-43.199 0-79.199 34.801-81.602 78-139.2 7.1992-250.8 122.4-250.8 262.8 0 56.398 18 109.2 48 151.2 0 0 1.1992 1.1992 1.1992 1.1992 45.602 63.602 117.6 105.6 200.4 110.4v52.801c0 43.199 34.801 79.199 76.801 81.602 2.3984 43.199 37.199 78 81.602 78h405.6c63.602 0 115.2-51.602 115.2-115.2v-529.2c1.1992-43.203-32.398-79.203-75.598-81.602zm46.797 610.8c0 46.801-38.398 85.199-85.199 85.199h-405.6c-26.398 0-49.199-21.602-50.398-48h412.8c44.398 0 81.602-36 81.602-81.602v-536.4c26.398 2.3984 46.801 24 46.801 50.398zm-649.2-592.8c4.8008 0 8.3984-1.1992 13.199-1.1992h1.1992c4.8008 0 9.6016 0 14.398 1.1992 19.199 1.1992 38.398 4.8008 56.398 10.801 4.8008 1.1992 9.6016 3.6016 14.398 4.8008 4.8008 2.3984 9.6016 3.6016 13.199 6 78 37.199 133.2 117.6 133.2 210 0 38.398-9.6016 74.398-25.199 105.6-1.1992-1.1992-1.1992-2.3984-2.3984-3.6016-18-27.602-49.199-42-76.801-55.199-8.3984-3.6016-15.602-7.1992-22.801-10.801-6-3.6016-10.801-7.1992-12-15.602v-7.1992c0-4.8008 1.1992-9.6016 3.6016-15.602 8.3984-25.199 16.801-50.398 13.199-82.801-1.1992-16.801-8.3984-32.398-16.801-46.801-4.8008-6-9.6016-12-14.398-18-4.8008-4.8008-9.6016-8.3984-14.398-12-14.398-9.6016-30-15.602-46.801-18-4.8008-1.1992-9.6016-1.1992-14.398-1.1992h-2.3984c-4.8008 0-8.3984 0-12 1.1992-49.199 6-92.398 46.801-97.199 94.801-3.6016 33.602 4.8008 58.801 13.199 82.801 9.6016 26.398 1.1992 33.602-7.1992 38.398-7.1992 3.6016-14.398 7.1992-22.801 10.801-27.602 13.199-60 27.602-78 55.199-1.1992 1.1992-1.1992 3.6016-2.3984 4.8008-16.801-32.398-26.398-68.398-26.398-106.8-1.1992-122.4 96-224.4 218.4-231.6zm81.602-78h439.2c28.801 0 51.602 22.801 51.602 51.602v468l-60-32.398v-135.6c0-8.3984-7.1992-14.398-14.398-14.398h-85.199c-8.3984 0-14.398 7.1992-14.398 14.398v170.4l-37.199 48v-56.398c0-8.3984-7.1992-14.398-14.398-14.398h-85.199c-8.3984 0-14.398 7.1992-14.398 14.398v76.801l-50.41-44.402v-45.602c12-10.801 21.602-22.801 31.199-36l1.1992-1.1992c30-43.199 48-94.801 48-151.2 0-92.398-48-174-121.2-220.8-8.3984-4.8008-16.801-9.6016-25.199-14.398-7.1992-3.6016-14.398-7.1992-21.602-9.6016-25.199-9.6016-51.602-15.602-79.199-18 2.4023-27.598 24-49.199 51.602-49.199zm345.6 532.8v-165.6h55.199v138l0.003906 172.8h-55.199zm85.203-10.801 60 32.398v73.199c0 28.801-22.801 51.602-51.602 51.602h-8.3984zm-115.2 156h-38.398v-58.801l37.199-48v106.8zm-106.8 0h-16.801v-147.6h55.199v147.6zm-46.801 0h-46.801v-90l46.801 45.602zm-132-122.4c12-4.8008 24-10.801 34.801-16.801 7.1992-3.6016 14.398-8.3984 20.398-13.199v153.6h-55.199zm-166.8-256.8c-9.6016-26.398-14.398-45.602-12-70.801 3.6016-33.602 32.398-62.398 67.199-68.398 3.6016-1.1992 8.3984-1.1992 12-1.1992h2.3984c4.8008 0 9.6016 1.1992 14.398 1.1992 18 3.6016 34.801 14.398 46.801 28.801 7.1992 8.3984 12 18 14.398 27.602 1.1992 3.6016 2.3984 7.1992 2.3984 10.801 1.1992 14.398 0 26.398-2.3984 38.398-2.3984 9.6016-4.8008 20.398-9.6016 31.199-4.8008 14.398-7.1992 27.602-4.8008 39.602l-1.1992 1.1992c-15.602 14.398-31.199 22.801-46.801 26.398-4.8008 1.1992-9.6016 1.1992-14.398 1.1992h-1.1992c-4.8008 0-8.3984-1.1992-13.199-1.1992-24-4.8008-42-19.199-50.398-26.398 3.6016-10.805 1.2031-24.004-3.5977-38.402zm-110.4 130.8c13.199-20.398 39.602-32.398 64.801-44.398 8.3984-3.6016 16.801-8.3984 24-12 4.8008-2.3984 8.3984-4.8008 12-8.3984 13.199 10.801 36 26.398 66 30 3.6016 0 8.3984 1.1992 12 1.1992h2.3984c4.8008 0 9.6016 0 14.398-1.1992 15.602-2.3984 31.199-8.3984 46.801-18 4.8008-3.6016 9.6016-7.1992 14.398-10.801h1.1992c3.6016 3.6016 7.1992 6 12 8.3984 1.1992 0 1.1992 1.1992 2.3984 1.1992 7.1992 3.6016 14.398 7.1992 21.602 10.801 25.199 12 51.602 24 64.801 44.398 3.6016 6 6 12 7.1992 20.398-2.3984 3.6016-4.8008 7.1992-7.1992 9.6016-3.6016 4.8008-7.1992 8.3984-12 13.199-4.8008 4.8008-9.6016 9.6016-14.398 14.398-8.3984 7.1992-18 14.398-27.602 20.398-8.3984 6-18 10.801-27.602 15.602-1.1992 1.1992-2.3984 1.1992-3.6016 2.3984-3.6016 1.1992-7.1992 2.3984-10.801 4.8008-1.1992 0-2.3984 1.1992-3.6016 1.1992-3.6016 1.1992-7.1992 2.3984-10.801 3.6016-1.1992 0-2.3984 1.1992-3.6016 1.1992-15.602 4.8008-31.199 7.1992-46.801 8.3984-4.8008 0-9.6016 1.1992-14.398 1.1992h-1.1992-1.1992c-4.8008 0-8.3984 0-13.199-1.1992-73.195-5.9961-135.59-41.996-176.39-95.996 1.1992-8.3984 3.6016-14.398 8.4023-20.398zm195.6 144c15.602-1.1992 31.199-3.6016 46.801-7.1992 1.1992 0 2.3984-1.1992 3.6016-1.1992v112.8h-3.6016c-26.398-2.3984-46.801-24-46.801-50.398z"/>
  <path d="m648 324h235.2c7.1992 0 13.199-4.8008 14.398-12v-2.3984c0-4.8008-2.3984-9.6016-7.1992-12-2.3984-1.1992-4.8008-2.3984-8.3984-2.3984l-234-0.003906c-3.6016 0-6 1.1992-8.3984 2.3984-3.6016 2.3984-7.1992 7.1992-7.1992 12v2.3984c2.3984 7.2031 8.3984 12.004 15.598 12.004z"/>
  <path d="m883.2 368.4h-159.6c-8.3984 0-14.398 7.1992-14.398 14.398 0 8.3984 7.1992 14.398 14.398 14.398h159.6c8.3984 0 14.398-7.1992 14.398-14.398 0-7.1953-6-14.398-14.402-14.398z"/>
  <path d="m883.2 444h-159.6c-8.3984 0-14.398 7.1992-14.398 14.398 0 7.1992 7.1992 14.398 14.398 14.398h159.6c8.3984 0 14.398-7.1992 14.398-14.398 0-7.1992-6-14.398-14.402-14.398z"/>
  <path d="m385.2 513.6h2.3984 33.598c8.3984 0 14.398-7.1992 14.398-14.398 0-8.3984-7.1992-14.398-14.398-14.398h-19.199v-37.199c0-2.3984-1.1992-4.8008-2.3984-7.1992-2.3984-4.8008-7.1992-8.3984-13.199-8.3984h-2.3984c-7.1992 1.1992-13.199 7.1992-13.199 14.398v52.801c1.1992 7.1914 7.1992 13.191 14.398 14.395z"/>
 </g>
</svg>
