<?xml version="1.0" encoding="UTF-8"?>
<svg width="300px" height="300px" version="1.1" viewBox="0 0 1200 1200" xmlns="http://www.w3.org/2000/svg">
 <g fill="#CDA671">
  <path d="m1136.5 487.98c-16.008-21.84-40.766-35.594-67.766-37.645v-0.33594c-0.027344-24.855-9.9141-48.684-27.488-66.262-17.578-17.574-41.406-27.461-66.262-27.488v-262.5c-0.015625-14.914-5.9492-29.211-16.492-39.758-10.547-10.543-24.844-16.477-39.758-16.492h-712.5c-14.914 0.015625-29.211 5.9492-39.758 16.492-10.543 10.547-16.477 24.844-16.492 39.758v262.5h-18.75c-24.855 0.027344-48.684 9.9141-66.262 27.488-17.574 17.578-27.461 41.406-27.488 66.262v618.75c0.027344 24.855 9.9141 48.684 27.488 66.262 17.578 17.574 41.406 27.461 66.262 27.488h769.49c20.102 0.078125 39.688-6.3359 55.844-18.293s28.02-28.816 33.816-48.062l160.42-525h-0.003906c8.8281-28.41 3.5117-59.332-14.301-83.164zm-161.52-94.23c14.914 0.015625 29.211 5.9492 39.758 16.492 10.543 10.547 16.477 24.844 16.492 39.758h-56.25zm-787.5-300c0.003906-4.9727 1.9844-9.7383 5.4961-13.254 3.5156-3.5117 8.2812-5.4922 13.254-5.4961h712.5c4.9727 0.003906 9.7383 1.9844 13.254 5.4961 3.5117 3.5156 5.4922 8.2812 5.4961 13.254v356.25h-618.88c-20.227 0.082031-39.891 6.6719-56.086 18.789-16.195 12.121-28.066 29.125-33.852 48.508l-41.18 140zm-112.5 356.25c0.015625-14.914 5.9492-29.211 16.492-39.758 10.547-10.543 24.844-16.477 39.758-16.492h18.75v391.05l-75 255zm1040 110.19-160.42 525h0.003906c-3.4805 11.547-10.594 21.66-20.289 28.836-9.6953 7.1758-21.445 11.023-33.508 10.977h-769.49c-14.027 0.011719-27.547-5.2383-37.891-14.715l171.29-582.41c3.4727-11.629 10.594-21.836 20.312-29.105 9.7188-7.2695 21.516-11.223 33.652-11.273h742.54c17.832 0 34.605 8.4531 45.215 22.789 10.605 14.332 13.789 32.844 8.5781 49.898z"/>
  <path d="m712.5 600c-0.015625-14.914-5.9492-29.211-16.492-39.758-10.547-10.543-24.844-16.477-39.758-16.492h-37.5c-14.914 0.015625-29.211 5.9492-39.758 16.492-10.543 10.547-16.477 24.844-16.492 39.758v225h-78.266l153.27 178.81 153.27-178.81h-78.266zm-75 346.19-71.734-83.691h34.234v-262.5c0.003906-4.9727 1.9844-9.7383 5.4961-13.254 3.5156-3.5117 8.2812-5.4922 13.254-5.4961h37.5c4.9727 0.003906 9.7383 1.9844 13.254 5.4961 3.5117 3.5156 5.4922 8.2812 5.4961 13.254v262.5h34.234z"/>
  <path d="m543.75 1031.2h187.5v37.5h-187.5z"/>
  <path d="m243.75 150h150v37.5h-150z"/>
  <path d="m675 243.75h206.25v37.5h-206.25z"/>
  <path d="m243.75 337.5h300v37.5h-300z"/>
  <path d="m431.25 150h450v37.5h-450z"/>
  <path d="m243.75 243.75h393.75v37.5h-393.75z"/>
  <path d="m581.25 337.5h300v37.5h-300z"/>
 </g>
</svg>
