<svg width="152" height="150" viewBox="45 30 153 152" fill="none" xmlns="http://www.w3.org/2000/svg">
<path d="M45.3847 163.551C84.6887 175.505 133.744 192.981 167.58 167.916C201.416 142.85 208.526 95.1014 183.461 61.2654C158.395 27.4295 110.646 20.3195 76.8104 45.3848C42.9744 70.4501 45.3667 128.159 45.3847 163.551Z" fill="#F2BB78"/>
<g clip-path="url(#clip0_155_4)">
<path d="M175.708 137.208H164.25V91.375H175.708C176.527 91.375 177.284 90.9381 177.693 90.2291C178.102 89.5201 178.102 88.6464 177.693 87.9375C177.283 87.2285 176.527 86.7916 175.708 86.7916H161.958C161.351 86.7916 160.768 87.033 160.338 87.463C159.908 87.8927 159.667 88.4757 159.667 89.0833V93.6666C143.625 93.6666 142.823 94.1937 140.669 92.0396C136.75 88.0291 132.992 89.0833 116.125 89.0833C112.87 89.103 109.869 90.8475 108.242 93.6666H81.75V89.0833C81.75 88.4757 81.5086 87.8927 81.0786 87.463C80.6489 87.033 80.066 86.7916 79.4583 86.7916H70.2916C69.4731 86.7916 68.7164 87.2285 68.3069 87.9375C67.8976 88.6464 67.8976 89.5202 68.3069 90.2291C68.7165 90.9381 69.4731 91.375 70.2916 91.375H77.1666V137.208H70.2916C69.4731 137.208 68.7164 137.645 68.3069 138.354C67.8976 139.063 67.8976 139.937 68.3069 140.646C68.7165 141.355 69.4731 141.792 70.2916 141.792H79.4583C80.0659 141.792 80.6489 141.55 81.0786 141.12C81.5086 140.691 81.75 140.108 81.75 139.5V134.917H85.5083C84.7084 137.059 84.9916 139.455 86.2696 141.352C87.5475 143.248 89.6623 144.41 91.9479 144.473C91.9944 146.281 92.7335 148.003 94.0128 149.283C95.2922 150.562 97.0142 151.301 98.8229 151.348C98.8694 153.156 99.6085 154.878 100.888 156.158C102.167 157.437 103.889 158.176 105.698 158.223C105.759 160.053 106.521 161.789 107.828 163.072C109.134 164.354 110.884 165.085 112.715 165.113C114.545 165.14 116.316 164.462 117.66 163.219L120.525 160.606C121.917 162.559 124.154 163.733 126.552 163.769C128.39 163.769 130.156 163.05 131.471 161.765C132.786 160.48 133.545 158.732 133.587 156.894C135.391 156.831 137.103 156.087 138.379 154.81C139.655 153.535 140.4 151.822 140.462 150.019C142.267 149.961 143.983 149.219 145.26 147.942C146.537 146.664 147.28 144.949 147.337 143.144C149.402 143.091 151.343 142.148 152.66 140.558C153.978 138.968 154.544 136.886 154.212 134.848H159.667V139.431C159.667 140.039 159.908 140.622 160.338 141.051C160.768 141.482 161.351 141.723 161.958 141.723H175.708C176.422 141.598 177.035 141.142 177.36 140.495C177.686 139.847 177.686 139.084 177.36 138.437C177.035 137.789 176.422 137.333 175.708 137.208L175.708 137.208ZM89.6333 137.208C89.6333 135.742 89.8625 135.925 98.2042 128.225C98.8845 127.666 99.8044 127.494 100.64 127.771C101.477 128.047 102.113 128.733 102.325 129.589C102.538 130.443 102.297 131.347 101.688 131.983L93.9417 139.133C93.4468 139.591 92.7923 139.835 92.1191 139.814C91.4455 139.793 90.8074 139.507 90.3427 139.02C89.8775 138.532 89.6229 137.882 89.6333 137.208L89.6333 137.208ZM96.5083 144.083C96.5083 142.617 96.7375 142.8 105.079 135.1C105.76 134.541 106.679 134.369 107.515 134.646C108.352 134.922 108.988 135.608 109.2 136.464C109.413 137.318 109.172 138.222 108.563 138.858L100.817 146.008C100.322 146.466 99.6673 146.71 98.9941 146.689C98.3205 146.668 97.6824 146.382 97.2177 145.895C96.7525 145.407 96.4979 144.757 96.5083 144.083L96.5083 144.083ZM103.383 150.958C103.383 149.492 103.613 149.675 111.954 141.975C112.635 141.416 113.554 141.244 114.39 141.521C115.227 141.797 115.863 142.483 116.075 143.339C116.288 144.193 116.047 145.097 115.438 145.733L107.692 152.883C107.197 153.341 106.542 153.585 105.869 153.564C105.196 153.543 104.557 153.257 104.093 152.77C103.628 152.282 103.373 151.632 103.383 150.958L103.383 150.958ZM114.567 159.758C114.072 160.216 113.417 160.46 112.744 160.439C112.071 160.418 111.432 160.132 110.968 159.645C110.503 159.157 110.248 158.507 110.258 157.833C110.258 156.367 110.487 156.55 118.829 148.85C119.509 148.291 120.429 148.119 121.265 148.396C122.102 148.672 122.738 149.358 122.95 150.213C123.163 151.068 122.922 151.972 122.312 152.608L114.567 159.758ZM124.742 158.292L123.894 157.398L125.429 155.977C127.881 153.685 126.254 152.769 128.317 154.831C128.951 155.47 129.197 156.399 128.961 157.267C128.725 158.136 128.044 158.813 127.173 159.043C126.303 159.273 125.376 159.022 124.742 158.383L124.742 158.292ZM145.367 137.827L138.492 130.952C137.911 130.371 137.063 130.144 136.269 130.357C135.475 130.569 134.855 131.189 134.642 131.984C134.429 132.778 134.656 133.625 135.238 134.206L142.113 141.081C142.659 141.75 142.836 142.647 142.584 143.473C142.333 144.299 141.687 144.946 140.861 145.197C140.035 145.448 139.138 145.271 138.469 144.725L131.594 137.85C131.013 137.269 130.165 137.042 129.371 137.255C128.577 137.467 127.957 138.087 127.744 138.882C127.531 139.675 127.758 140.523 128.34 141.104C135.673 148.415 135.994 148.323 135.994 149.79C135.989 150.464 135.723 151.11 135.249 151.59C134.776 152.071 134.135 152.348 133.46 152.362C132.786 152.377 132.133 152.128 131.64 151.669C124.283 144.427 124.329 144.083 123 144.083C122.324 143.828 121.613 143.682 120.892 143.648C120.834 141.843 120.092 140.127 118.814 138.85C117.537 137.573 115.822 136.83 114.017 136.773C113.954 134.97 113.21 133.257 111.933 131.981C110.658 130.705 108.945 129.961 107.142 129.898C107.075 128.071 106.309 126.339 105.002 125.061C103.694 123.782 101.946 123.056 100.118 123.03C98.2894 123.005 96.5212 123.683 95.1791 124.925C88.0062 131.479 89.4958 130.333 88.625 130.333H81.75V98.25H106.958C106.958 100.681 107.924 103.013 109.643 104.732C111.362 106.451 113.694 107.417 116.125 107.417H122.06L148.873 134.252C149.455 134.905 149.666 135.809 149.43 136.652C149.195 137.494 148.547 138.159 147.711 138.415C146.874 138.672 145.965 138.485 145.298 137.919L145.367 137.827ZM159.667 130.333H151.44L128.523 107.417H132.167C132.985 107.417 133.742 106.98 134.151 106.271C134.561 105.562 134.561 104.688 134.151 103.979C133.742 103.27 132.985 102.833 132.167 102.833H116.125C114.488 102.833 112.974 101.96 112.156 100.542C111.337 99.1236 111.337 97.3763 112.156 95.9583C112.974 94.5403 114.488 93.6666 116.125 93.6666C134.894 93.6666 135.283 93.1625 137.415 95.2937C141.333 99.1208 144.29 98.25 159.667 98.25C159.667 132.029 159.896 130.333 159.667 130.333Z" fill="white"/>
<path d="M111.931 73.1791C122.313 83.5375 121.717 83.2854 123 83.2854C124.283 83.2854 123.802 83.4229 134.069 73.1791C141.54 65.6854 132.167 53.3791 123 58.7646C113.833 53.3791 104.46 65.6854 111.931 73.1791ZM121.442 63.2791C121.879 63.6447 122.43 63.8449 123 63.8449C123.57 63.8449 124.121 63.6447 124.558 63.2791C125.443 62.5014 126.594 62.0946 127.771 62.1429C128.948 62.1909 130.062 62.6908 130.88 63.538C131.699 64.3856 132.159 65.5156 132.167 66.6937C132.167 69.2146 131.113 69.65 123 77.7625C115.254 70.0625 113.833 69.3062 113.833 66.6937C113.841 65.5156 114.301 64.3856 115.12 63.538C115.938 62.6908 117.052 62.191 118.229 62.1429C119.406 62.0946 120.557 62.5014 121.442 63.2791Z" fill="white"/>
<path d="M146.581 86.1271C147.012 86.5611 147.597 86.8049 148.208 86.8049C148.819 86.8049 149.405 86.561 149.835 86.1271L152.127 83.8354C152.708 83.2543 152.935 82.4067 152.723 81.6128C152.51 80.8186 151.89 80.1984 151.095 79.9858C150.302 79.7731 149.454 80.0001 148.873 80.5812L148.208 81.2687L147.544 80.5812C146.963 80.0001 146.115 79.7731 145.321 79.9858C144.527 80.1985 143.907 80.8186 143.694 81.6128C143.481 82.4067 143.708 83.2542 144.29 83.8354L146.581 86.1271Z" fill="white"/>
<path d="M93.8729 65.5021C94.3033 65.9361 94.8891 66.1799 95.5 66.1799C96.1109 66.1799 96.6967 65.936 97.1271 65.5021L99.4188 63.2104C99.9999 62.6293 100.227 61.7817 100.014 60.9879C99.8015 60.1936 99.1814 59.5734 98.3871 59.3608C97.5933 59.1481 96.7458 59.3751 96.1646 59.9562L95.5 60.6437L94.8354 59.9562C94.2543 59.3751 93.4067 59.1481 92.6129 59.3608C91.8187 59.5735 91.1985 60.1936 90.9858 60.9879C90.7731 61.7817 91.0001 62.6292 91.5813 63.2104L93.8729 65.5021Z" fill="white"/>
</g>
<defs>
<clipPath id="clip0_155_4">
<rect width="110" height="110" fill="white" transform="translate(68 57)"/>
</clipPath>
</defs>
</svg>
