<svg width="152" height="150" viewBox="45 43 153 152" fill="none" xmlns="http://www.w3.org/2000/svg">
<path d="M45.3848 61.2655C84.6887 49.3113 133.744 31.835 167.58 56.9003C201.416 81.9657 208.526 129.715 183.461 163.551C158.395 197.387 110.646 204.497 76.8104 179.431C42.9744 154.366 45.3667 96.6573 45.3848 61.2655Z" fill="#A8B8D9"/>
<g clip-path="url(#clip0_155_3)">
<path d="M174 132.813C173.997 129.968 172.865 127.241 170.854 125.23C168.842 123.218 166.115 122.087 163.271 122.083H148.25V113.73C148.269 112.178 147.743 110.668 146.762 109.465C145.782 108.262 144.409 107.442 142.885 107.148C141.016 106.833 139.103 107.356 137.656 108.58C136.208 109.805 135.374 111.604 135.375 113.5V143.542C135.383 145.871 136.157 148.133 137.576 149.979H137.521C136.952 149.979 136.406 150.205 136.004 150.608C135.601 151.01 135.375 151.556 135.375 152.125V162.854C135.375 163.423 135.601 163.969 136.004 164.371C136.406 164.774 136.952 165 137.521 165H171.854C172.423 165 172.969 164.774 173.371 164.371C173.774 163.969 174 163.423 174 162.854V152.125C174 151.556 173.774 151.01 173.371 150.608C172.969 150.205 172.423 149.979 171.854 149.979H171.798C173.218 148.133 173.992 145.871 174 143.542L174 132.813ZM169.708 160.708H139.667V154.271H169.708V160.708ZM146.104 149.979C144.397 149.979 142.759 149.301 141.552 148.094C140.345 146.887 139.667 145.249 139.667 143.542V113.5C139.667 112.931 139.893 112.385 140.295 111.983C140.698 111.58 141.244 111.354 141.813 111.354C141.938 111.354 142.064 111.365 142.188 111.386C142.708 111.513 143.168 111.816 143.49 112.243C143.813 112.67 143.978 113.195 143.958 113.73V124.229C143.958 124.798 144.184 125.344 144.587 125.746C144.989 126.149 145.535 126.375 146.104 126.375H163.271C164.978 126.375 166.616 127.053 167.823 128.26C169.03 129.467 169.708 131.105 169.708 132.812V143.541C169.708 145.249 169.03 146.886 167.823 148.093C166.616 149.3 164.978 149.979 163.271 149.979L146.104 149.979Z" fill="white"/>
<path d="M111.143 129.149C109.6 127.611 107.511 126.748 105.334 126.748C103.156 126.748 101.067 127.611 99.5249 129.149L90.3133 138.361V68.4365C90.3133 67.8675 90.5393 67.3217 90.9419 66.9193C91.3443 66.5167 91.8901 66.2907 92.4591 66.2907H156.834C157.403 66.2907 157.949 66.5167 158.351 66.9193C158.754 67.3217 158.98 67.8675 158.98 68.4365V119.937H163.272V68.4365C163.272 66.7292 162.593 65.0917 161.386 63.8847C160.179 62.6774 158.541 61.999 156.834 61.999H92.4592C90.7518 61.999 89.1143 62.6773 87.9073 63.8847C86.7 65.0917 86.0217 66.7293 86.0217 68.4365V107.233C82.4499 107.749 79.1828 109.533 76.8186 112.26C74.4542 114.987 73.1509 118.473 73.1466 122.083V152.124C72.5776 152.124 72.0318 152.35 71.6294 152.753C71.2267 153.155 71.0007 153.701 71.0007 154.27V162.853C71.0007 163.422 71.2267 163.968 71.6294 164.371C72.0317 164.773 72.5776 164.999 73.1466 164.999H101.042C101.611 164.999 102.157 164.773 102.56 164.371C102.962 163.968 103.188 163.422 103.188 162.853V154.27C103.188 153.701 102.962 153.155 102.56 152.753C102.157 152.35 101.611 152.124 101.042 152.124H99.7851L108.368 143.541H131.084V139.249H112.314C113.282 137.679 113.692 135.828 113.479 133.996C113.267 132.164 112.444 130.456 111.143 129.149L111.143 129.149ZM98.8959 160.708H75.2918V156.417H98.8959V160.708ZM77.4376 152.125V122.083C77.4403 119.611 78.2956 117.215 79.859 115.299C81.4228 113.384 83.5988 112.066 86.0209 111.569V143.542C86.0209 144.111 86.2473 144.656 86.6496 145.059C87.0519 145.461 87.5978 145.687 88.1668 145.687C88.7358 145.687 89.2816 145.461 89.684 145.059L102.559 132.184C103.557 131.227 104.984 130.867 106.317 131.234C107.649 131.601 108.69 132.642 109.058 133.975C109.425 135.307 109.064 136.735 108.108 137.733L93.7155 152.125L77.4376 152.125Z" fill="white"/>
<path d="M111.771 81.3125V77.0209C111.771 75.3136 111.093 73.676 109.885 72.469C108.678 71.2617 107.041 70.5834 105.333 70.5834H101.042C99.3343 70.5834 97.6968 71.2617 96.4898 72.469C95.2825 73.676 94.6042 75.3136 94.6042 77.0209V81.3125C94.6042 83.0199 95.2824 84.6574 96.4898 85.8644C97.6968 87.0717 99.3344 87.75 101.042 87.75H105.333C107.041 87.75 108.678 87.0718 109.885 85.8644C111.092 84.6574 111.771 83.0198 111.771 81.3125ZM107.479 81.3125C107.479 81.8815 107.253 82.4273 106.85 82.8297C106.448 83.2324 105.902 83.4584 105.333 83.4584H101.042C100.473 83.4584 99.9268 83.2324 99.5244 82.8297C99.1218 82.4274 98.8958 81.8815 98.8958 81.3125V77.0209C98.8958 76.4519 99.1218 75.9061 99.5244 75.5037C99.9268 75.101 100.473 74.875 101.042 74.875H105.333C105.902 74.875 106.448 75.101 106.85 75.5037C107.253 75.906 107.479 76.4519 107.479 77.0209V81.3125Z" fill="white"/>
<path d="M126.792 70.5834H122.5C120.793 70.5834 119.155 71.2617 117.948 72.469C116.741 73.676 116.062 75.3136 116.062 77.0209V81.3125C116.062 83.0199 116.741 84.6574 117.948 85.8644C119.155 87.0717 120.793 87.75 122.5 87.75H126.792C128.499 87.75 130.137 87.0718 131.343 85.8644C132.551 84.6574 133.229 83.0198 133.229 81.3125V77.0209C133.229 75.3136 132.551 73.676 131.343 72.469C130.137 71.2617 128.499 70.5834 126.792 70.5834ZM128.938 81.3125C128.938 81.8815 128.712 82.4273 128.309 82.8297C127.906 83.2324 127.361 83.4584 126.792 83.4584H122.5C121.931 83.4584 121.385 83.2324 120.983 82.8297C120.58 82.4274 120.354 81.8815 120.354 81.3125V77.0209C120.354 76.4519 120.58 75.9061 120.983 75.5037C121.385 75.101 121.931 74.875 122.5 74.875H126.792C127.361 74.875 127.906 75.101 128.309 75.5037C128.712 75.906 128.938 76.4519 128.938 77.0209V81.3125Z" fill="white"/>
<path d="M154.688 77.0209C154.688 75.3136 154.009 73.676 152.802 72.469C151.595 71.2617 149.957 70.5834 148.25 70.5834H143.958C142.251 70.5834 140.614 71.2617 139.407 72.469C138.199 73.676 137.521 75.3136 137.521 77.0209V81.3125C137.521 83.0199 138.199 84.6574 139.407 85.8644C140.614 87.0717 142.251 87.75 143.958 87.75H148.25C149.957 87.75 151.595 87.0718 152.802 85.8644C154.009 84.6574 154.688 83.0198 154.688 81.3125V77.0209ZM150.396 81.3125C150.396 81.8815 150.17 82.4273 149.767 82.8297C149.365 83.2324 148.819 83.4584 148.25 83.4584H143.958C143.389 83.4584 142.844 83.2324 142.441 82.8297C142.038 82.4274 141.812 81.8815 141.812 81.3125V77.0209C141.812 76.4519 142.038 75.9061 142.441 75.5037C142.843 75.101 143.389 74.875 143.958 74.875H148.25C148.819 74.875 149.365 75.101 149.767 75.5037C150.17 75.906 150.396 76.4519 150.396 77.0209V81.3125Z" fill="white"/>
<path d="M105.333 122.083V115.251C107.016 114.665 108.378 113.403 109.092 111.77C109.805 110.137 109.805 108.28 109.092 106.647C108.378 105.013 107.016 103.752 105.333 103.166V92.0417H101.042V103.166C99.3586 103.752 97.9966 105.013 97.2831 106.647C96.5697 108.28 96.5696 110.137 97.2831 111.77C97.9966 113.403 99.3586 114.665 101.042 115.251V122.083H105.333ZM103.188 107.063C103.756 107.063 104.302 107.289 104.705 107.691C105.107 108.094 105.333 108.639 105.333 109.208C105.333 109.777 105.107 110.323 104.705 110.726C104.302 111.128 103.756 111.354 103.188 111.354C102.619 111.354 102.073 111.128 101.67 110.726C101.268 110.323 101.042 109.777 101.042 109.208C101.042 108.639 101.268 108.094 101.67 107.691C102.073 107.289 102.619 107.063 103.188 107.063Z" fill="white"/>
<path d="M126.792 116.041V92.0417H122.5V116.041C120.575 116.721 119.088 118.274 118.49 120.226C117.893 122.177 118.257 124.297 119.47 125.938C120.684 127.579 122.605 128.548 124.646 128.548C126.687 128.548 128.607 127.579 129.821 125.938C131.035 124.297 131.399 122.178 130.801 120.226C130.204 118.274 128.716 116.721 126.792 116.041V116.041ZM124.646 124.229C124.077 124.229 123.531 124.003 123.129 123.6C122.726 123.198 122.5 122.652 122.5 122.083C122.5 121.514 122.726 120.968 123.129 120.566C123.531 120.163 124.077 119.937 124.646 119.937C125.215 119.937 125.761 120.163 126.163 120.566C126.566 120.968 126.792 121.514 126.792 122.083C126.792 122.652 126.566 123.198 126.163 123.6C125.761 124.003 125.215 124.229 124.646 124.229Z" fill="white"/>
<path d="M137.521 92.0417H154.688V96.3334H137.521V92.0417Z" fill="white"/>
<path d="M137.521 100.625H154.688V104.917H137.521V100.625Z" fill="white"/>
</g>
<defs>
<clipPath id="clip0_155_3">
<rect width="103" height="103" fill="white" transform="translate(71 62)"/>
</clipPath>
</defs>
</svg>
