<svg width="201" height="200" viewBox="0 0 201 200" fill="none" xmlns="http://www.w3.org/2000/svg">
<path d="M57.0838 162.654C57.7404 163.084 58.5903 163.084 59.2479 162.654C85.1912 145.634 77.7891 120.457 77.7122 120.205H77.7112C77.6468 119.995 77.547 119.796 77.4151 119.62L77.3226 119.495H77.3237C77.1793 119.301 77.0016 119.135 76.7969 119.005C73.9036 117.168 67.6339 114.084 58.1653 114.084C48.6967 114.084 42.427 117.167 39.5336 119.005C39.33 119.135 39.1513 119.301 39.008 119.495L38.9155 119.62C38.7846 119.796 38.6849 119.995 38.6194 120.205C38.5415 120.457 31.1393 145.633 57.0838 162.654H57.0838ZM42.2152 121.957C47.0825 119.235 52.5908 117.868 58.1655 117.998C63.7381 117.868 69.2432 119.233 74.1083 121.953C74.9602 125.564 78.3232 144.704 58.1655 158.66C37.8115 144.584 41.3033 125.637 42.2152 121.956V121.957Z" fill="#CDA671"/>
<path d="M55.068 144.399C55.5521 144.399 56.0196 144.221 56.3801 143.899L67.3394 134.121H67.3404C67.7279 133.775 67.9617 133.29 67.9897 132.771C68.0188 132.253 67.8391 131.744 67.4911 131.359C66.7638 130.554 65.5245 130.488 64.715 131.209L55.0679 139.816L51.6147 136.736C50.8054 136.016 49.566 136.082 48.8387 136.886C48.4917 137.272 48.312 137.78 48.34 138.298C48.3681 138.818 48.6029 139.303 48.9904 139.648L53.7558 143.899C54.1173 144.221 54.5838 144.399 55.0679 144.399L55.068 144.399Z" fill="#CDA671"/>
<path d="M67.9935 111.152H111.31C111.508 109.837 111.755 108.534 112.05 107.24H67.9938C67.4733 107.238 66.9736 107.443 66.6048 107.81C66.236 108.176 66.0282 108.676 66.0282 109.196C66.0282 109.716 66.236 110.216 66.6048 110.582C66.9736 110.949 67.4733 111.154 67.9938 111.152L67.9935 111.152Z" fill="#CDA671"/>
<path d="M67.9934 103.33H113.097C113.505 102.009 113.965 100.706 114.475 99.4185L67.9933 99.4195C67.4728 99.4164 66.9731 99.621 66.6043 99.9888C66.2355 100.356 66.0277 100.854 66.0277 101.375C66.0277 101.895 66.2355 102.394 66.6043 102.761C66.9731 103.128 67.4728 103.333 67.9933 103.33L67.9934 103.33Z" fill="#CDA671"/>
<path d="M67.9934 95.5082H116.185L117.935 91.7598C117.927 91.7058 117.929 91.6518 117.923 91.5967H67.9948C67.4743 91.5936 66.9746 91.7993 66.6058 92.166C66.237 92.5328 66.0292 93.0314 66.0292 93.5519C66.0292 94.0724 66.237 94.5711 66.6058 94.9388C66.9746 95.3055 67.4743 95.5102 67.9948 95.5081L67.9934 95.5082Z" fill="#CDA671"/>
<path d="M67.9935 87.6864H118.754L120.58 83.7749H67.9927C67.4722 83.7728 66.9725 83.9775 66.6037 84.3442C66.2349 84.712 66.0271 85.2107 66.0271 85.7311C66.0271 86.2516 66.2349 86.7503 66.6037 87.117C66.9725 87.4837 67.4722 87.6894 67.9927 87.6863L67.9935 87.6864Z" fill="#CDA671"/>
<path d="M66.0281 77.9069C66.0312 78.9894 66.9111 79.8652 67.9937 79.8621H122.409L124.235 75.9507L67.9956 75.9517C66.913 75.9486 66.0331 76.8244 66.03 77.9069L66.0281 77.9069Z" fill="#CDA671"/>
<path d="M127.805 63.6649C128.787 64.1199 129.954 63.696 130.415 62.7153L139.525 43.206C139.756 42.7156 140.34 42.5037 140.831 42.7323L143.504 43.9686L142.676 45.7399L142.675 45.7409L142.674 45.743L121.97 90.0781C121.677 90.7098 121.746 91.4505 122.149 92.0178L119.299 98.1201C117.145 102.729 115.713 107.642 115.052 112.686L113.098 127.598C112.988 128.447 113.444 129.269 114.222 129.626L114.42 129.717C115.197 130.075 116.117 129.89 116.697 129.261L126.891 118.158C130.337 114.408 133.187 110.152 135.343 105.537L138.192 99.4356H138.191C138.89 99.3847 139.505 98.9566 139.796 98.3198L162.988 48.6602C163.643 47.2473 163.711 45.6318 163.174 44.1701C162.636 42.7073 161.539 41.5198 160.124 40.8674L152.994 37.5709C151.576 36.9164 149.958 36.8478 148.491 37.3818C147.024 37.9147 145.827 39.0066 145.161 40.4195L142.487 39.1833H142.488C141.307 38.6378 139.958 38.5817 138.736 39.0264C137.513 39.471 136.515 40.3801 135.961 41.5571L126.849 61.0664C126.63 61.5371 126.607 62.0763 126.787 62.5635C126.966 63.0507 127.332 63.4466 127.804 63.6637L127.805 63.6649ZM131.777 103.888C129.791 108.141 127.165 112.064 123.989 115.521L117.755 122.308L118.951 113.192C119.56 108.544 120.879 104.015 122.865 99.7681L125.599 93.9128L134.512 98.033L131.777 103.888ZM148.727 42.0691C149.188 41.0884 150.354 40.6646 151.338 41.1196L158.469 44.4151C158.939 44.6322 159.305 45.0291 159.485 45.5163C159.663 46.0035 159.64 46.5417 159.422 47.0133L157.766 50.5601L147.07 45.6149L148.727 42.0691ZM145.414 49.1628L156.109 54.1069L137.059 94.8994L126.365 89.9553L145.414 49.1628Z" fill="#CDA671"/>
<path d="M110.254 49.5506C110.775 49.5537 111.274 49.348 111.643 48.9813C112.012 48.6145 112.22 48.1159 112.22 47.5954C112.22 47.0749 112.012 46.5762 111.643 46.2085C111.274 45.8418 110.775 45.6371 110.254 45.6392H84.7015C84.181 45.6371 83.6813 45.8418 83.3124 46.2085C82.9436 46.5762 82.7358 47.0749 82.7358 47.5954C82.7358 48.1159 82.9436 48.6145 83.3124 48.9813C83.6812 49.348 84.181 49.5537 84.7015 49.5506H110.254Z" fill="#CDA671"/>
<path d="M73.8898 55.4176C73.8929 56.5012 74.7728 57.3759 75.8554 57.3738H119.097C119.618 57.3759 120.118 57.1713 120.486 56.8045C120.855 56.4368 121.063 55.9381 121.063 55.4176C121.063 54.8971 120.855 54.3985 120.486 54.0317C120.118 53.665 119.618 53.4593 119.097 53.4624H75.8554C74.7728 53.4593 73.8929 54.3351 73.8898 55.4176V55.4176Z" fill="#CDA671"/>
<path d="M60.129 110.216V43.6251C60.1488 42.5582 61.0277 41.7094 62.0936 41.726H131.546L132.396 39.9069H132.394C132.739 39.1745 133.183 38.493 133.714 37.8831C133.43 37.8395 133.144 37.8166 132.857 37.8146H62.0935C60.5424 37.8052 59.0496 38.4109 57.944 39.5007C56.8386 40.5895 56.2111 42.073 56.1976 43.6251V110.216C56.8386 110.189 57.4942 110.174 58.1632 110.173C58.8333 110.174 59.4878 110.188 60.1288 110.216L60.129 110.216Z" fill="#CDA671"/>
<path d="M65.4774 162.976H112.294C112.82 162.976 113.322 162.766 113.692 162.393L138.188 137.702C138.552 137.337 138.756 136.844 138.756 136.329V107.496C137.618 109.895 136.304 112.205 134.824 114.41V133.641H116.837C115.331 133.665 113.896 134.285 112.845 135.366C111.796 136.446 111.217 137.898 111.237 139.405V159.063L69.9127 159.064C68.5102 160.452 67.0287 161.758 65.4766 162.975L65.4774 162.976ZM115.169 139.407V139.406C115.121 138.434 115.867 137.607 116.837 137.552H132.813L115.169 155.339L115.169 139.407Z" fill="#CDA671"/>
<path d="M80.4881 117.178L80.5806 117.304H80.5816C80.9546 117.811 81.2424 118.376 81.4356 118.976H100.424C100.945 118.978 101.445 118.774 101.813 118.407C102.182 118.039 102.39 117.541 102.39 117.02C102.39 116.5 102.182 116.001 101.813 115.634C101.445 115.267 100.945 115.062 100.424 115.065H77.8367C78.2273 115.289 78.5919 115.508 78.9109 115.71C79.5228 116.098 80.0578 116.595 80.4879 117.178L80.4881 117.178Z" fill="#CDA671"/>
</svg>
