<svg width="300px" height="300px" viewBox="20 20 120 120" fill="none" xmlns="http://www.w3.org/2000/svg">
<path d="M85.9321 45.1786V37.7725C85.9321 36.9497 85.2689 36.2881 84.442 36.2881H75.5681C74.7462 36.2881 74.0779 36.9546 74.0779 37.77V39.2518C74.0779 40.8883 72.7506 42.2157 71.1141 42.2157C69.4776 42.2157 68.1503 40.8884 68.1503 39.2518V37.77C68.1503 33.6776 71.4764 30.3606 75.5679 30.3606H84.4418C88.5392 30.3606 91.8594 33.6725 91.8594 37.7725V45.1787C93.4959 45.1787 94.8224 46.506 94.8224 48.1425V65.9242C94.8224 67.5607 93.4959 68.888 91.8594 68.888H68.1509C66.5145 68.888 65.1871 67.5607 65.1871 65.9242V48.1425C65.1871 46.506 66.5144 45.1787 68.1509 45.1787L85.9321 45.1786ZM109.641 94.0786C102.275 94.0786 96.3045 88.108 96.3045 80.7425C96.3045 73.3769 102.275 67.4063 109.641 67.4063C117.006 67.4063 122.977 73.3769 122.977 80.7425C122.977 88.108 117.006 94.0786 109.641 94.0786ZM102.232 98.5244H117.05C124.416 98.5244 130.386 104.495 130.386 111.861V126.678C130.386 128.315 129.059 129.642 127.423 129.642H91.8609C90.2236 129.642 88.897 128.315 88.897 126.678V111.861C88.897 104.495 94.8677 98.5244 102.233 98.5244H102.232ZM50.3704 94.0786C43.0051 94.0786 37.0334 88.108 37.0334 80.7425C37.0334 73.3769 43.0049 67.4063 50.3704 67.4063C57.7349 67.4063 63.7066 73.3769 63.7066 80.7425C63.7066 88.108 57.7351 94.0786 50.3704 94.0786ZM42.9611 98.5244H57.7792C65.1445 98.5244 71.1153 104.495 71.1153 111.861V126.678C71.1153 128.315 69.7889 129.642 68.1515 129.642H32.5898C30.9525 129.642 29.626 128.315 29.626 126.678V111.861C29.626 104.495 35.5966 98.5244 42.9621 98.5244H42.9611ZM71.1143 51.1074V62.9616H88.896V51.1074H71.1143ZM109.64 88.152C113.732 88.152 117.049 84.835 117.049 80.7435C117.049 76.6512 113.732 73.3342 109.64 73.3342C105.548 73.3342 102.231 76.6512 102.231 80.7435C102.231 84.835 105.548 88.152 109.64 88.152ZM124.458 111.861C124.458 107.768 121.141 104.451 117.049 104.451H102.231C98.139 104.451 94.8219 107.768 94.8219 111.861V123.715H124.458L124.458 111.861ZM50.3685 88.152C54.46 88.152 57.777 84.835 57.777 80.7435C57.777 76.6512 54.46 73.3342 50.3685 73.3342C46.2762 73.3342 42.9592 76.6512 42.9592 80.7435C42.9592 84.835 46.2762 88.152 50.3685 88.152ZM65.1858 111.861C65.1858 107.768 61.8687 104.451 57.7773 104.451H42.9592C38.8677 104.451 35.5507 107.768 35.5507 111.861V123.715H65.1868L65.1858 111.861Z" fill="#CDA671"/>
</svg>
