<?xml version="1.0" encoding="UTF-8"?>
<svg width="150px" height="150px" version="1.1" viewBox="0 0 752 752" xmlns="http://www.w3.org/2000/svg">
 <path d="m335.47 150.59h82.484c12.801 0 22.754 11.379 22.754 24.176v136.53h137.95c12.801 0 22.754 11.379 22.754 24.176v82.484c0 12.801-9.957 22.754-22.754 22.754h-137.95v137.95c0 12.801-9.957 22.754-22.754 22.754h-82.484c-12.801 0-24.176-9.957-24.176-22.754v-137.95h-136.53c-12.801 0-24.176-9.957-24.176-22.754v-82.484c0-12.801 11.379-24.176 24.176-24.176h136.53v-136.53c0-12.801 11.379-24.176 24.176-24.176z" fill-rule="evenodd" fill="#ffffff"/>
</svg>
