<?xml version="1.0" encoding="UTF-8" standalone="no" ?>
<!DOCTYPE svg PUBLIC "-//W3C//DTD SVG 1.1//EN" "http://www.w3.org/Graphics/SVG/1.1/DTD/svg11.dtd">
<svg xmlns="http://www.w3.org/2000/svg" xmlns:xlink="http://www.w3.org/1999/xlink" version="1.1" width="1080" height="1080" viewBox="0 0 1080 1080" xml:space="preserve">
<g transform="matrix(2.14 0 0 2.14 540 537)"  >
<path style="stroke: none; stroke-width: 1; stroke-dasharray: none; stroke-linecap: butt; stroke-dashoffset: 0; stroke-linejoin: miter; stroke-miterlimit: 4; fill: rgb(255,255,255); fill-rule: evenodd; opacity: 1;"  transform=" translate(-376, -376)" d="M 335.47 150.59 L 417.954 150.59 C 430.755 150.59 440.708 161.969 440.708 174.766 L 440.708 311.296 L 578.658 311.296 C 591.4590000000001 311.296 601.412 322.675 601.412 335.472 L 601.412 417.95599999999996 C 601.412 430.75699999999995 591.455 440.71 578.658 440.71 L 440.708 440.71 L 440.708 578.66 C 440.708 591.461 430.75100000000003 601.414 417.954 601.414 L 335.47 601.414 C 322.66900000000004 601.414 311.29400000000004 591.457 311.29400000000004 578.66 L 311.29400000000004 440.71 L 174.76400000000004 440.71 C 161.96300000000005 440.71 150.58800000000005 430.753 150.58800000000005 417.95599999999996 L 150.58800000000005 335.472 C 150.58800000000005 322.671 161.96700000000004 311.296 174.76400000000004 311.296 L 311.29400000000004 311.296 L 311.29400000000004 174.766 C 311.29400000000004 161.965 322.67300000000006 150.59 335.47 150.59 z" stroke-linecap="round" />
</g>
</svg>